# xmcd
#
# Track frame offsets:
#	150
#	18821
#	35062
#	53550
#	67953
#	84509
#	104109
#	115237
#	133656
#	152404
#	178245
#	192095
#	212391
#
# Disc length: 3009 seconds
#
# Revision: 0
# Processed by: cddbd v1.5.2PL0 Copyright (c) Steve Scherf et al.
# Submitted via: EZCDAudioConverter 3.0.6.1
#
DISCID=a90bbf0d
DTITLE=Davy Knowles - The Outsider
DYEAR=2015
DGENRE=Blues Rock
TTITLE0=Ain’t No Grave
TTITLE1=Uprising
TTITLE2=Self Entitled Man
TTITLE3=Overload
TTITLE4=Work A Little Harder
TTITLE5=Island Bound
TTITLE6=Catch The Moon
TTITLE7=What Doesn’t Kill You
TTITLE8=The Outsider
TTITLE9=A Million Miles Away
TTITLE10=In A Little While
TTITLE11=Pastures of Plenty
TTITLE12=I Knew She Was A Liar (But I Never Would Have Called Her A Thief)
EXTD=
EXTT0=
EXTT1=
EXTT2=
EXTT3=
EXTT4=
EXTT5=
EXTT6=
EXTT7=
EXTT8=
EXTT9=
EXTT10=
EXTT11=
EXTT12=
PLAYORDER=
